<svg xmlns="http://www.w3.org/2000/svg" width="20" height="20" viewBox="0 0 20 20" fill="none">
  <g opacity="0.8">
    <path fill-rule="evenodd" clip-rule="evenodd" d="M2.66248 10.9375C2.66248 10.5095 3.00945 10.1625 3.43748 10.1625H7.81248C8.2405 10.1625 8.58748 10.5095 8.58748 10.9375C8.58748 11.3655 8.2405 11.7125 7.81248 11.7125H4.21248V16.5625C4.21248 16.9905 3.8655 17.3375 3.43748 17.3375C3.00945 17.3375 2.66248 16.9905 2.66248 16.5625V10.9375Z" fill="white"/>
    <path fill-rule="evenodd" clip-rule="evenodd" d="M1.41248 16.5625C1.41248 16.1345 1.75945 15.7875 2.18748 15.7875H17.8125C18.2405 15.7875 18.5875 16.1345 18.5875 16.5625C18.5875 16.9905 18.2405 17.3375 17.8125 17.3375H2.18748C1.75945 17.3375 1.41248 16.9905 1.41248 16.5625Z" fill="white"/>
    <path fill-rule="evenodd" clip-rule="evenodd" d="M7.03748 7.18748C7.03748 6.75946 7.38445 6.41248 7.81248 6.41248H12.1875C12.6155 6.41248 12.9625 6.75946 12.9625 7.18748C12.9625 7.6155 12.6155 7.96248 12.1875 7.96248H8.58748V16.5625C8.58748 16.9905 8.2405 17.3375 7.81248 17.3375C7.38445 17.3375 7.03748 16.9905 7.03748 16.5625V7.18748Z" fill="white"/>
    <path fill-rule="evenodd" clip-rule="evenodd" d="M11.4125 3.43748C11.4125 3.00945 11.7595 2.66248 12.1875 2.66248H16.5625C16.9905 2.66248 17.3375 3.00945 17.3375 3.43748V16.5625C17.3375 16.9905 16.9905 17.3375 16.5625 17.3375H12.1875C11.7595 17.3375 11.4125 16.9905 11.4125 16.5625V3.43748ZM12.9625 4.21248V15.7875H15.7875V4.21248H12.9625Z" fill="white"/>
  </g>
</svg>