<svg xmlns="http://www.w3.org/2000/svg" width="20" height="20" viewBox="0 0 20 20" fill="none">
  <g opacity="0.8">
    <path fill-rule="evenodd" clip-rule="evenodd" d="M0.833313 3.03701C0.833313 2.65234 1.14378 2.34052 1.52677 2.34052H13.0812C13.4641 2.34052 13.7746 2.65234 13.7746 3.03701V13.0947C13.7746 13.4793 13.4641 13.7912 13.0812 13.7912H1.52677C1.14378 13.7912 0.833313 13.4793 0.833313 13.0947V3.03701ZM2.22022 3.73349V12.3982H12.3877V3.73349H2.22022Z" fill="white"/>
    <path fill-rule="evenodd" clip-rule="evenodd" d="M12.3877 6.90536C12.3877 6.5207 12.6982 6.20887 13.0811 6.20887H16.1623C16.3462 6.20887 16.5226 6.28225 16.6527 6.41287L18.9635 8.73387C19.0936 8.86449 19.1666 9.04164 19.1666 9.22636V13.0947C19.1666 13.4794 18.8562 13.7912 18.4732 13.7912L13.0812 13.7912C12.6982 13.7912 12.3877 13.4794 12.3877 13.0947V6.90536ZM13.7746 7.60185V12.3982H17.7797V9.51486L15.8751 7.60185H13.7746Z" fill="white"/>
    <path fill-rule="evenodd" clip-rule="evenodd" d="M4.99304 13.7911C4.31247 13.7911 3.76076 14.3453 3.76076 15.0288C3.76076 15.7124 4.31247 16.2665 4.99304 16.2665C5.6736 16.2665 6.22531 15.7124 6.22531 15.0288C6.22531 14.3453 5.6736 13.7911 4.99304 13.7911ZM2.37385 15.0288C2.37385 13.5759 3.5465 12.3982 4.99304 12.3982C6.43957 12.3982 7.61222 13.5759 7.61222 15.0288C7.61222 16.4817 6.43957 17.6595 4.99304 17.6595C3.5465 17.6595 2.37385 16.4817 2.37385 15.0288Z" fill="white"/>
    <path fill-rule="evenodd" clip-rule="evenodd" d="M15.0069 13.7911C14.3263 13.7911 13.7746 14.3453 13.7746 15.0288C13.7746 15.7124 14.3263 16.2665 15.0069 16.2665C15.6874 16.2665 16.2392 15.7124 16.2392 15.0288C16.2392 14.3453 15.6874 13.7911 15.0069 13.7911ZM12.3877 15.0288C12.3877 13.5759 13.5603 12.3982 15.0069 12.3982C16.4534 12.3982 17.6261 13.5759 17.6261 15.0288C17.6261 16.4817 16.4534 17.6595 15.0069 17.6595C13.5603 17.6595 12.3877 16.4817 12.3877 15.0288Z" fill="white"/>
  </g>
</svg>