<svg xmlns="http://www.w3.org/2000/svg" width="20" height="20" viewBox="0 0 20 20" fill="none">
  <g opacity="0.8">
    <path fill-rule="evenodd" clip-rule="evenodd" d="M14.297 1.98737C14.1117 1.19626 13.4056 0.625 12.5802 0.625H7.4197L7.28877 0.629913L7.1527 0.645423L7.01888 0.671421C6.22777 0.856753 5.65651 1.56287 5.65651 2.38819V2.60323H4.19435L4.04432 2.60717C2.70297 2.67794 1.61407 3.69145 1.61407 4.96848V17.0098L1.61851 17.1505C1.69802 18.4071 2.83545 19.375 4.19435 19.375H15.8056L15.9556 19.3711C17.297 19.3003 18.3859 18.2868 18.3859 17.0098V4.96848L18.3814 4.82771C18.3019 3.57113 17.1645 2.60323 15.8056 2.60323H14.3434V2.38819L14.3385 2.25726L14.323 2.12119L14.297 1.98737ZM14.3434 3.89336V4.10837C14.3434 4.93369 13.7722 5.63981 12.9811 5.82514L12.8472 5.85114L12.7112 5.86665L12.5802 5.87156H7.4197C6.59438 5.87156 5.88826 5.3003 5.70293 4.5092L5.67693 4.37537L5.66142 4.2393L5.65651 4.10837V3.89336H4.19435C3.50885 3.89336 2.97088 4.33572 2.90996 4.86776L2.90421 4.96848V17.0098C2.90421 17.5516 3.40186 18.0259 4.06763 18.0798L4.19435 18.0849H15.8056C16.4911 18.0849 17.0291 17.6425 17.09 17.1105L17.0957 17.0098V4.96848C17.0957 4.42661 16.5981 3.95238 15.9323 3.89846L15.8056 3.89336H14.3434ZM7.67746 1.61411H12.3225C12.7695 1.61411 13.159 1.90084 13.3003 2.31864L13.3303 2.42573L13.3485 2.53612L13.3546 2.64625L13.3541 3.86708L13.3451 3.98931L13.3238 4.10085L13.2868 4.21899C13.1781 4.50363 12.9482 4.72443 12.6587 4.8251L12.5475 4.85711L12.4312 4.87652L12.3225 4.88246L7.66072 4.88191L7.53849 4.87291L7.42695 4.85165L7.30881 4.81468C7.02417 4.70593 6.80337 4.47604 6.7027 4.18656L6.67069 4.07533L6.65128 3.95905L6.64535 3.85031L6.64589 2.62948L6.65489 2.50725L6.67615 2.39571L6.71312 2.27757C6.82188 1.99293 7.05176 1.77213 7.34124 1.67146L7.45247 1.63945L7.56875 1.62004L7.67746 1.61411Z" fill="white"/>
    <path d="M5.4629 10.5959C5.93813 10.5959 6.32337 10.2107 6.32337 9.73547C6.32337 9.26025 5.93813 8.875 5.4629 8.875C4.98768 8.875 4.60243 9.26025 4.60243 9.73547C4.60243 10.2107 4.98768 10.5959 5.4629 10.5959Z" fill="white"/>
    <path d="M8.04434 8.9485C7.61232 8.9485 7.2621 9.29872 7.2621 9.73075C7.2621 10.1628 7.61232 10.513 8.04434 10.513H14.6152C15.0472 10.513 15.3975 10.1628 15.3975 9.73075C15.3975 9.29872 15.0472 8.9485 14.6152 8.9485H8.04434Z" fill="white"/>
    <path d="M7.26213 14.1522C7.26213 13.7202 7.61236 13.3699 8.04438 13.3699H14.6152C15.0473 13.3699 15.3975 13.7202 15.3975 14.1522C15.3975 14.5842 15.0473 14.9344 14.6152 14.9344H8.04438C7.61236 14.9344 7.26213 14.5842 7.26213 14.1522Z" fill="white"/>
    <path d="M5.46294 15.0174C5.93816 15.0174 6.32341 14.6321 6.32341 14.1569C6.32341 13.6817 5.93816 13.2964 5.46294 13.2964C4.98771 13.2964 4.60247 13.6817 4.60247 14.1569C4.60247 14.6321 4.98771 15.0174 5.46294 15.0174Z" fill="white"/>
  </g>
</svg>