<svg xmlns="http://www.w3.org/2000/svg" width="20" height="20" viewBox="0 0 20 20" fill="none">
  <g opacity="0.8">
    <path fill-rule="evenodd" clip-rule="evenodd" d="M18.8083 7.41667C18.6833 7.16667 18.4249 7 18.1416 7H11.0916L11.8666 0.816667C11.9083 0.5 11.7333 0.183333 11.4333 0.0583333C11.3416 0.0166667 11.2416 0 11.1499 0C10.9333 0 10.7249 0.0916667 10.5833 0.258333L1.83328 10.7583C1.64994 10.975 1.61661 11.2833 1.73328 11.5333C1.84994 11.7917 2.11661 11.9583 2.39161 11.9583H9.44161L8.66661 18.1333C8.63328 18.4583 8.80828 18.7667 9.09994 18.9C9.39994 19.025 9.74994 18.9417 9.95828 18.6917L18.7083 8.19167C18.8833 7.975 18.9249 7.675 18.8083 7.41667ZM10.4249 15.85L10.9916 11.3167C11.0166 11.1083 10.9499 10.9 10.8166 10.7417C10.6749 10.5917 10.4749 10.5 10.2666 10.5H3.94994L10.1083 3.10833L9.54161 7.63333C9.51661 7.84167 9.58328 8.05 9.72494 8.20833C9.85828 8.36667 10.0583 8.45833 10.2666 8.45833H16.5833L10.4249 15.85Z" fill="white"/>
  </g>
</svg>