<svg xmlns="http://www.w3.org/2000/svg" width="20" height="20" viewBox="0 0 20 20" fill="none">
  <g opacity="0.8">
    <path d="M17.0809 10.8334C17.7713 10.8334 18.3309 11.393 18.3309 12.0834V17.0834C18.3309 17.7737 17.7713 18.3334 17.0809 18.3334H12.0809C11.3906 18.3334 10.8309 17.7737 10.8309 17.0834V12.0834C10.8309 11.393 11.3906 10.8334 12.0809 10.8334H17.0809ZM7.91669 10.8334C8.60704 10.8334 9.16669 11.393 9.16669 12.0834V17.0834C9.16669 17.7737 8.60704 18.3334 7.91669 18.3334H2.91669C2.22633 18.3334 1.66669 17.7737 1.66669 17.0834V12.0834C1.66669 11.393 2.22633 10.8334 2.91669 10.8334H7.91669ZM16.9142 12.25H12.2475V16.9167H16.9142V12.25ZM7.75002 12.25H3.08335V16.9167H7.75002V12.25ZM7.91669 1.66669C8.60704 1.66669 9.16669 2.22633 9.16669 2.91669V7.91669C9.16669 8.60704 8.60704 9.16669 7.91669 9.16669H2.91669C2.22633 9.16669 1.66669 8.60704 1.66669 7.91669V2.91669C1.66669 2.22633 2.22633 1.66669 2.91669 1.66669H7.91669ZM17.0809 1.66669C17.7713 1.66669 18.3309 2.22633 18.3309 2.91669V7.91669C18.3309 8.60704 17.7713 9.16669 17.0809 9.16669H12.0809C11.3906 9.16669 10.8309 8.60704 10.8309 7.91669V2.91669C10.8309 2.22633 11.3906 1.66669 12.0809 1.66669H17.0809ZM7.75002 3.08335H3.08335V7.75002H7.75002V3.08335ZM16.9142 3.08335H12.2475V7.75002H16.9142V3.08335Z" fill="white"/>
  </g>
</svg>