<svg xmlns="http://www.w3.org/2000/svg" width="16" height="16" viewBox="0 0 16 16" fill="none">
  <path fill-rule="evenodd" clip-rule="evenodd" d="M1.62288 9.93363C1.83116 9.72535 2.16885 9.72535 2.37713 9.93363L4.64088 12.1974L6.90462 9.93363C7.1129 9.72535 7.45059 9.72535 7.65887 9.93363C7.86715 10.1419 7.86715 10.4796 7.65887 10.6879L5.018 13.3287C4.80972 13.537 4.47203 13.537 4.26375 13.3287L1.62288 10.6879C1.4146 10.4796 1.4146 10.1419 1.62288 9.93363Z" fill="#4D4D4D"/>
  <path fill-rule="evenodd" clip-rule="evenodd" d="M4.64083 2.51503C4.93538 2.51503 5.17416 2.75381 5.17416 3.04836L5.17416 12.9516C5.17416 13.2462 4.93538 13.485 4.64083 13.485C4.34628 13.485 4.1075 13.2462 4.1075 12.9516L4.1075 3.04836C4.1075 2.75381 4.34628 2.51503 4.64083 2.51503Z" fill="#4D4D4D"/>
  <path fill-rule="evenodd" clip-rule="evenodd" d="M14.3771 6.06634C14.1688 6.27462 13.8311 6.27462 13.6229 6.06634L11.3591 3.80259L9.09538 6.06634C8.8871 6.27462 8.54941 6.27462 8.34113 6.06634C8.13285 5.85806 8.13285 5.52037 8.34113 5.31209L10.982 2.67122C11.1903 2.46294 11.528 2.46294 11.7362 2.67122L14.3771 5.31209C14.5854 5.52037 14.5854 5.85806 14.3771 6.06634Z" fill="#4D4D4D"/>
  <path fill-rule="evenodd" clip-rule="evenodd" d="M11.3592 13.4849C11.0646 13.4849 10.8258 13.2462 10.8258 12.9516L10.8258 3.04835C10.8258 2.7538 11.0646 2.51502 11.3592 2.51502C11.6537 2.51502 11.8925 2.7538 11.8925 3.04835L11.8925 12.9516C11.8925 13.2462 11.6537 13.4849 11.3592 13.4849Z" fill="#4D4D4D"/>
</svg>