<svg xmlns="http://www.w3.org/2000/svg" width="24" height="24" viewBox="0 0 24 24" fill="none">
  <path fill-rule="evenodd" clip-rule="evenodd" d="M2.99995 3.79745C2.42319 3.79745 1.79995 4.35545 1.79995 5.24745V18.7474C1.79995 19.6394 2.42319 20.1974 2.99995 20.1974H21C21.5767 20.1974 22.2 19.6394 22.2 18.7474V15.8475H17C14.8737 15.8475 13.15 14.1237 13.15 11.9975C13.15 9.87116 14.8737 8.14745 17 8.14745H22.2V5.24745C22.2 4.35545 21.5767 3.79745 21 3.79745H2.99995ZM23.7999 8.14745V5.24745C23.7999 3.65417 22.6323 2.19745 21 2.19745H2.99995C1.36758 2.19745 0.199951 3.65417 0.199951 5.24745V18.7474C0.199951 20.3407 1.36758 21.7974 2.99995 21.7974H21C22.6323 21.7974 23.7999 20.3407 23.7999 18.7474V15.8475H23.85V8.14745H23.7999ZM16 11.9475C16 11.478 16.3806 11.0975 16.85 11.0975H18.15C18.6194 11.0975 19 11.478 19 11.9475C19 12.4169 18.6194 12.7975 18.15 12.7975H16.85C16.3806 12.7975 16 12.4169 16 11.9475ZM14.85 11.9975C14.85 10.81 15.8126 9.84745 17 9.84745H22.15V14.1475H17C15.8126 14.1475 14.85 13.1849 14.85 11.9975Z" fill="white"/>
</svg>